# xmcd CD database file
#
# Track frame offsets:
#	150
#	11364
#	27484
#	41630
#	61167
#	80475
#	95969
#	121960
#	134760
#	156427
#	187146
#	211226
#	229450
#	254341
#	271419
#	302352
#	333401
#
# Disc length: 4640 seconds
#
# Revision: 0
# Processed by: cddbd v1.5.2PL0 Copyright (c) Steve Scherf et al.
# Submitted via: CDex 1.51
#
DISCID=f9121e11
DTITLE=Dave Brubeck Quartet - Bossa Nova U.S.A.
DYEAR=1962
DGENRE=Jazz
TTITLE0=Bossa Nova U.S.A.
TTITLE1=Vento Fresco
TTITLE2=Trolley Song
TTITLE3=Theme For June
TTITLE4=Coracao Sensivel (Tender Heart)
TTITLE5=Irmao Amigo (Brother Friend)
TTITLE6=There'll Be No Tomorrow
TTITLE7=Cantiga Nova Swing
TTITLE8=Lamento
TTITLE9=This Can't Be Love
TTITLE10=The Most Beautiful Girl In The World
TTITLE11=Over And Over Again
TTITLE12=Little Girl Blue
TTITLE13=Fatha
TTITLE14=My Romance
TTITLE15=Why Can't It?
TTITLE16=The Circus On Parade
EXTD=YEAR: 1962
EXTT0=
EXTT1=
EXTT2=
EXTT3=
EXTT4=
EXTT5=
EXTT6=
EXTT7=
EXTT8=
EXTT9=
EXTT10=
EXTT11=
EXTT12=
EXTT13=
EXTT14=
EXTT15=
EXTT16=
PLAYORDER=
